<svg width="45" height="45" viewBox="0 0 45 45" fill="none" xmlns="http://www.w3.org/2000/svg">
<path d="M22.7249 23.9625C22.5937 23.9437 22.4249 23.9437 22.2749 23.9625C18.9749 23.85 16.3499 21.15 16.3499 17.8312C16.3499 14.4375 19.0874 11.6812 22.4999 11.6812C25.8937 11.6812 28.6499 14.4375 28.6499 17.8312C28.6312 21.15 26.0249 23.85 22.7249 23.9625Z" stroke="white" stroke-linecap="round" stroke-linejoin="round"/>
<path d="M35.1375 36.3377C31.8 39.3939 27.375 41.2502 22.5 41.2502C17.625 41.2502 13.2 39.3939 9.86255 36.3377C10.05 34.5752 11.175 32.8502 13.1813 31.5002C18.3188 28.0877 26.7188 28.0877 31.8188 31.5002C33.825 32.8502 34.95 34.5752 35.1375 36.3377Z" stroke="white" stroke-linecap="round" stroke-linejoin="round"/>
<path d="M22.5 41.25C32.8552 41.25 41.25 32.8552 41.25 22.5C41.25 12.1447 32.8552 3.75 22.5 3.75C12.1447 3.75 3.75 12.1447 3.75 22.5C3.75 32.8552 12.1447 41.25 22.5 41.25Z" stroke="white" stroke-linecap="round" stroke-linejoin="round"/>
</svg>
